<svg xmlns="http://www.w3.org/2000/svg" width="686" height="257" fill="none"><path d="M245.691 19.555c28.271-16.879 56.542-33.757 84.797-50.632 44.828-26.77 89.632-53.57 134.457-80.357 10.273-6.144 20.566-12.276 30.835-18.437 1.061-.632.126-2.304-.935-1.671-28.243 16.922-56.453 33.904-84.672 50.854C365.41-53.798 320.657-26.901 275.897.005c-10.265 6.176-20.524 12.342-30.789 18.518-.647.39-.071 1.43.583 1.032ZM428.204-84.582c53.564 33.633 106.668 68.21 160.877 100.817 1.018.612 1.95-.974.932-1.586-54.208-32.607-107.331-67.128-160.924-100.737-.956-.603-1.841.903-.885 1.506ZM397.669-66.291A165021.88 165021.88 0 0 0 508.965 4.41c17.564 11.139 34.979 22.623 52.795 33.356 1.018.612 1.95-.974.932-1.586-17.826-10.74-35.243-22.197-52.807-33.336-37.12-23.53-74.228-47.081-111.331-70.642-.956-.603-1.831.909-.885 1.505ZM365.627-47.091c50.877 32.323 101.73 64.685 152.705 96.863 4.525 2.85 9.005 5.755 13.583 8.514 1.018.612 1.95-.974.932-1.586-37.688-22.703-74.467-47.02-111.622-70.584a123985.642 123985.642 0 0 1-54.722-34.719c-.936-.59-1.822.915-.876 1.512ZM335.722-27.985c18.83 12.018 37.644 24.041 56.474 36.06l90.631 57.875 20.77 13.267c1 .642 1.923-.95.933-1.586-18.83-12.018-37.656-24.021-56.486-36.04-30.216-19.281-60.438-38.553-90.655-57.834-6.923-4.423-13.852-8.835-20.776-13.258-.946-.597-1.831.909-.891 1.516ZM302.726-8.213c52.62 33.632 105.188 67.327 157.897 100.808 4.583 2.911 9.141 5.889 13.799 8.696 1.018.612 1.951-.974.933-1.586-38.971-23.485-76.889-48.876-115.234-73.356-18.84-12.024-37.674-24.059-56.504-36.078-.952-.586-1.837.92-.891 1.516ZM268.858 12.09c19.58 12.582 39.176 25.159 58.756 37.74 31.278 20.095 62.562 40.18 93.84 60.275 7.257 4.659 14.518 9.335 21.775 13.994 1 .642 1.923-.95.933-1.586l-58.768-37.72c-31.29-20.075-62.573-40.16-93.863-60.235L269.75 10.575c-.956-.603-1.842.903-.892 1.515ZM80.985-109.805c19.736 12.822 39.466 25.653 59.201 38.475l94.309 61.293 21.569 14.022c.95.613 1.826-.899.886-1.506-19.736-12.821-39.478-25.633-59.213-38.454-31.439-20.42-62.894-40.834-94.332-61.254-7.194-4.675-14.383-9.335-21.576-14.011-.9-.583-1.728.848-.844 1.435ZM448.454-98.342C501.693-64.914 554.449-30.527 608.327 1.885c1.018.612 1.95-.974.932-1.586-53.867-32.406-106.663-66.749-159.92-100.147-.956-.602-1.841.903-.885 1.506ZM417.919-80.052c36.926 23.471 73.856 46.957 110.794 70.408 17.403 11.044 34.638 22.422 52.293 33.06 1.018.613 1.951-.973.933-1.585-17.656-10.64-34.912-22.003-52.305-33.041-36.95-23.43-73.892-46.897-110.83-70.347-.956-.603-1.831.909-.885 1.505ZM385.879-60.851C436.47-28.71 487.026 3.492 537.711 35.499c4.474 2.82 8.924 5.707 13.461 8.443 1.018.612 1.951-.974.933-1.586-37.393-22.516-73.88-46.687-110.739-70.064-18.204-11.543-36.393-23.09-54.592-34.643-.956-.603-1.841.903-.895 1.5ZM354.968-42.335c18.83 12.018 37.644 24.04 56.474 36.06l90.631 57.874 20.77 13.268c1 .642 1.923-.95.933-1.586-18.83-12.018-37.656-24.021-56.486-36.04-30.216-19.281-60.438-38.553-90.655-57.834-6.923-4.423-13.852-8.836-20.776-13.258-.946-.597-1.831.909-.891 1.516ZM321.972-22.563c52.62 33.631 105.188 67.327 157.897 100.808 4.583 2.911 9.141 5.888 13.799 8.695 1.018.612 1.951-.974.933-1.586C455.63 61.87 417.712 36.48 379.367 12c-18.84-12.025-37.674-24.06-56.504-36.078-.952-.587-1.837.919-.891 1.516ZM288.104-2.26c19.58 12.581 39.176 25.158 58.756 37.74 31.278 20.095 62.562 40.18 93.84 60.275 7.257 4.659 14.518 9.334 21.775 13.993 1 .643 1.923-.949.933-1.586L404.64 70.443c-31.289-20.075-62.573-40.16-93.863-60.235L288.996-3.776c-.956-.602-1.842.903-.892 1.516ZM256.633 17.235c53.431 35.284 106.799 70.652 160.394 105.681 5.288 3.461 10.555 6.977 15.929 10.313 1.097.685 2.112-1.041 1.016-1.727-41.034-25.399-80.903-52.87-121.211-79.41l-55.247-36.378c-.93-.601-1.815.904-.881 1.521ZM71.299-105.369c38.871 25.262 77.315 51.206 115.987 76.784 19.276 12.754 38.557 25.497 57.839 38.24.944.623 1.842-.902.897-1.525C192.59-27.06 139.226-62.345 85.816-97.55c-4.587-3.021-9.165-6.078-13.775-9.059-.791-.493-1.517.742-.742 1.239Z" fill="#D1F2DE"></path><path d="M244.822 18.895c-.342.812-.474 1.748-.616 2.61-.135.758-.398 1.55-.044 2.257.216.438.82.375 1.059.015.414-.635.254-1.512.283-2.251.047-.837.193-1.684.182-2.514-.017-.524-.678-.548-.864-.117ZM366.062 168.625c-.192.373.344.702.563.331l-.563-.331ZM382.685 141.574c.602-1.024-.984-1.957-1.586-.933l1.586.933ZM377.01 135.331c.283-.712-.845-1.389-1.335-.785l1.335.785ZM371.22 129.253c.279-.728-.876-1.177-1.249-.519l1.249.519ZM343.166 111.673c.464-.835-.805-1.594-1.285-.755l1.285.755ZM327.78 102.019c.393-.715-.616-1.295-1.084-.638l1.084.638ZM312.411 93.17c.358-.817-.703-1.494-1.225-.72l1.225.72ZM337.635 103.504c.237-.334-.308-.763-.565-.441l.565.441ZM352.46 116.706c.284-.576-.499-1.036-.864-.508l.864.508ZM321.285 94.78c.34-.624-.583-1.167-.953-.56l.953.56ZM235.928 17.528c28.027-16.832 56.059-33.649 84.073-50.503 44.614-26.843 89.234-53.696 133.848-80.54 10.199-6.133 20.409-12.261 30.594-18.416 2.102-1.277.241-4.614-1.861-3.337-27.985 16.898-55.915 33.909-83.872 50.85-44.531 27-89.062 54-133.574 81.039-10.171 6.177-20.348 12.365-30.52 18.542-1.481.912-.174 3.26 1.312 2.365ZM225.888 11.625c28.028-16.832 56.06-33.649 84.074-50.503 44.614-26.843 89.234-53.696 133.848-80.539 10.199-6.134 20.409-12.262 30.594-18.417 2.102-1.277.241-4.614-1.861-3.337-27.985 16.898-55.916 33.909-83.872 50.85-44.531 27-89.062 54-133.574 81.039-10.171 6.177-20.349 12.365-30.52 18.542-1.481.912-.175 3.26 1.311 2.365Z" fill="#D1F2DE"></path><path d="M246.216 24.267c28.3-16.834 56.583-33.665 84.883-50.5 44.865-26.695 89.693-53.466 134.546-80.21 10.283-6.138 20.574-12.245 30.854-18.399 2.105-1.261.245-4.598-1.861-3.337-28.243 16.922-56.421 33.964-84.631 50.945-44.735 26.935-89.456 53.89-134.169 80.878-10.255 6.182-20.505 12.38-30.76 18.563-1.322.776-.173 2.843 1.138 2.06ZM256.255 30.17c28.3-16.834 56.583-33.665 84.883-50.5 44.865-26.695 89.693-53.466 134.546-80.21 10.283-6.138 20.574-12.245 30.854-18.399 2.105-1.261.245-4.598-1.861-3.337-28.243 16.922-56.421 33.964-84.631 50.945-44.735 26.935-89.456 53.89-134.169 80.878-10.255 6.182-20.505 12.38-30.76 18.562-1.322.777-.173 2.844 1.138 2.061Z" fill="#D1F2DE"></path><path d="M437.088-90.502c53.559 33.643 106.644 68.25 160.853 100.857 2.026 1.219 3.891-1.953 1.865-3.172-54.208-32.607-107.349-67.098-160.947-100.697-1.908-1.19-3.679 1.822-1.771 3.012ZM406.555-72.212C443.64-48.62 480.73-25.04 517.839-1.489c17.558 11.149 34.967 22.643 52.783 33.376 2.026 1.218 3.885-1.944 1.865-3.172-17.826-10.74-35.249-22.187-52.813-33.326-37.126-23.52-74.234-47.072-111.342-70.622-1.908-1.19-3.679 1.822-1.777 3.021ZM374.515-53.011c50.871 32.332 101.712 64.715 152.687 96.893 4.525 2.85 9.004 5.754 13.582 8.514 2.026 1.218 3.886-1.944 1.866-3.172-37.688-22.703-74.48-47-111.64-70.553l-54.734-34.7c-1.886-1.203-3.657 1.808-1.761 3.018ZM344.607-33.905c18.824 12.028 37.638 24.05 56.462 36.08 30.205 19.301 60.409 38.603 90.62 57.895l20.77 13.267c1.996 1.269 3.856-1.893 1.865-3.172-18.83-12.018-37.661-24.01-56.497-36.02L367.16-23.668c-6.929-4.413-13.852-8.835-20.782-13.248-1.896-1.21-3.657 1.808-1.771 3.012ZM311.611-14.133c52.614 33.641 105.171 67.357 157.873 100.848 4.584 2.911 9.136 5.898 13.794 8.705 2.026 1.219 3.885-1.943 1.865-3.172-38.971-23.484-76.9-48.855-115.251-73.325l-56.51-36.068c-1.896-1.21-3.667 1.802-1.771 3.012ZM277.744 6.17c19.58 12.581 39.17 25.168 58.743 37.76 31.278 20.095 62.551 40.2 93.829 60.295 7.257 4.659 14.518 9.334 21.775 13.993 1.99 1.279 3.856-1.893 1.865-3.172-19.586-12.571-39.187-25.138-58.779-37.699-31.29-20.075-62.586-40.14-93.875-60.215-7.257-4.66-14.53-9.314-21.787-13.973-1.891-1.22-3.661 1.791-1.771 3.011Z" fill="#D1F2DE"></path><path d="M424.077 141.164c26.155-19.162 52.311-38.325 78.461-57.477 41.741-30.573 83.43-61.217 125.142-91.833 9.632-7.075 19.288-14.123 28.906-21.22 1.935-1.43.104-4.748-1.853-3.305-24.894 18.35-52.488 38.856-78.224 57.901a154312.114 154312.114 0 0 0-124.783 92.463c-9.603 7.119-19.213 14.248-28.816 21.367-1.233.923-.076 3.022 1.167 2.104ZM414.037 135.261c26.156-19.162 52.312-38.325 78.462-57.477 41.741-30.573 83.43-61.217 125.142-91.833 9.632-7.075 19.288-14.123 28.906-21.22 1.935-1.43.104-4.748-1.853-3.305C619.8-20.224 592.206.282 566.47 19.327a156238.329 156238.329 0 0 0-124.783 92.462c-9.604 7.119-19.213 14.249-28.817 21.368-1.232.923-.075 3.022 1.167 2.104ZM288.79 50.654 372.745-.73c44.424-27.185 88.794-54.441 133.189-81.67 10.23-6.278 20.475-12.534 30.706-18.837 2.098-1.293.237-4.63-1.86-3.337-27.939 17.209-55.803 34.543-83.705 51.828a174968.317 174968.317 0 0 0-132.821 82.332c-10.208 6.331-20.405 12.668-30.613 19-1.297.804-.153 2.855 1.149 2.067ZM333.196 80.819c27.515-17.661 55.036-35.332 82.551-52.993 43.836-28.138 87.619-56.348 131.42-84.52 10.017-6.443 20.038-12.871 30.035-19.326 2.064-1.327.209-4.674-1.861-3.337-27.474 17.752-54.868 35.62-82.3 53.437a130678.158 130678.158 0 0 0-131.042 85.188c-9.979 6.493-19.963 12.996-29.942 19.49-1.293.82-.144 2.887 1.139 2.06ZM377.075 110.823c27.143-18.407 54.277-36.819 81.414-55.215 43.079-29.218 86.126-58.496 129.17-87.748 9.923-6.742 19.865-13.473 29.774-20.237 2.003-1.362.166-4.671-1.853-3.305-27.096 18.488-54.128 37.095-81.176 55.638-42.953 29.44-85.893 58.903-128.818 88.388-9.9 6.796-19.79 13.598-29.69 20.394-1.258.854-.101 2.953 1.179 2.085ZM101.792-71.672c30.001-14.605 59.996-29.2 89.986-43.811 47.434-23.091 94.836-46.268 142.241-69.403 10.993-5.37 21.995-10.708 32.984-16.093 2.219-1.087.336-4.409-1.861-3.337-29.944 14.692-59.824 29.504-89.745 44.25-47.304 23.33-94.599 46.691-141.874 70.065-10.97 5.423-21.925 10.843-32.896 16.266-1.362.685-.201 2.732 1.165 2.063ZM144.74-42.525c29.546-15.278 59.101-30.55 88.641-45.818 46.89-24.235 93.727-48.541 140.584-72.836 10.784-5.588 21.566-11.149 32.335-16.759 2.187-1.145.314-4.462-1.861-3.336-29.499 15.359-58.933 30.838-88.395 46.273-46.76 24.473-93.496 48.975-140.217 73.498a71804.799 71804.799 0 0 0-32.241 16.921c-1.358.701-.198 2.748 1.154 2.057ZM191.633-12.274c28.645-16.091 57.301-32.176 85.952-48.277 45.481-25.537 90.919-51.139 136.376-76.729 10.482-5.901 20.971-11.769 31.438-17.692 2.122-1.197.27-4.502-1.853-3.305-28.599 16.173-57.142 32.458-85.719 48.685A156424.423 156424.423 0 0 0 221.81-32.233c-10.453 5.944-20.895 11.894-31.354 17.848-1.343.79-.164 2.875 1.177 2.11ZM299.832 57.147l83.956-51.383c44.424-27.185 88.794-54.441 133.189-81.67 10.23-6.277 20.475-12.533 30.706-18.837 2.098-1.293.237-4.63-1.86-3.337-27.939 17.21-55.803 34.544-83.705 51.828A175224.325 175224.325 0 0 0 329.297 36.08c-10.208 6.331-20.406 12.669-30.613 19-1.297.805-.153 2.856 1.148 2.067ZM344.239 87.312c27.515-17.66 55.036-35.331 82.551-52.992C470.626 6.18 514.409-22.028 558.21-50.2c10.017-6.444 20.038-12.872 30.035-19.327 2.064-1.327.209-4.674-1.861-3.337-27.474 17.752-54.868 35.62-82.3 53.437a130660.577 130660.577 0 0 0-131.042 85.188c-9.979 6.493-19.963 12.997-29.942 19.49-1.293.82-.144 2.887 1.139 2.061ZM388.114 117.316c27.143-18.407 54.277-36.819 81.414-55.215 43.079-29.218 86.126-58.496 129.171-87.748 9.922-6.743 19.865-13.473 29.773-20.237 2.003-1.362.166-4.671-1.853-3.305-27.096 18.488-54.128 37.095-81.176 55.638-42.953 29.44-85.892 58.903-128.817 88.388-9.9 6.796-19.79 13.598-29.69 20.394-1.259.854-.102 2.953 1.178 2.085ZM112.831-65.18c30.001-14.604 59.996-29.199 89.986-43.81 47.434-23.091 94.836-46.268 142.241-69.403 10.993-5.37 21.995-10.708 32.984-16.093 2.219-1.087.336-4.409-1.861-3.337-29.944 14.692-59.824 29.504-89.745 44.25-47.303 23.33-94.599 46.691-141.874 70.065-10.97 5.423-21.925 10.843-32.896 16.266-1.362.685-.201 2.732 1.165 2.063ZM155.783-36.032c29.546-15.278 59.101-30.55 88.641-45.818 46.89-24.235 93.727-48.541 140.584-72.836 10.784-5.587 21.566-11.149 32.335-16.758 2.187-1.146.314-4.463-1.861-3.337-29.499 15.359-58.933 30.838-88.395 46.273-46.76 24.473-93.496 48.975-140.217 73.498-10.745 5.637-21.49 11.274-32.241 16.921-1.358.701-.198 2.748 1.154 2.057ZM201.082-5.368a523450.4 523450.4 0 0 1 86.326-48.314c45.854-25.668 91.677-51.395 137.503-77.106 10.507-5.899 21.022-11.766 31.525-17.68 2.123-1.198.27-4.503-1.852-3.305-28.731 16.189-57.391 32.488-86.089 48.737-45.728 25.89-91.443 51.802-137.144 77.736-10.478 5.943-20.957 11.885-31.442 17.838-1.347.774-.178 2.853 1.173 2.094ZM278.754 44.75 362.71-6.631c44.423-27.185 88.794-54.441 133.189-81.67 10.23-6.278 20.474-12.534 30.706-18.837 2.098-1.293.237-4.63-1.861-3.337-27.938 17.209-55.802 34.543-83.704 51.828a175064.173 175064.173 0 0 0-132.821 82.332c-10.208 6.331-20.406 12.668-30.613 19-1.297.804-.153 2.855 1.148 2.067ZM323.157 74.916c27.515-17.66 55.036-35.331 82.551-52.992 43.836-28.139 87.619-56.348 131.42-84.52 10.017-6.444 20.038-12.872 30.035-19.327 2.064-1.327.209-4.674-1.861-3.337-27.474 17.752-54.868 35.62-82.3 53.437A130660.577 130660.577 0 0 0 351.96 53.365c-9.979 6.493-19.963 12.997-29.942 19.49-1.293.82-.144 2.887 1.139 2.061ZM367.036 104.92c27.143-18.407 54.276-36.819 81.414-55.215 43.079-29.218 86.125-58.496 129.17-87.748 9.923-6.743 19.865-13.473 29.774-20.237 2.003-1.362.166-4.671-1.853-3.305-27.096 18.488-54.128 37.095-81.176 55.638-42.953 29.44-85.893 58.903-128.818 88.388-9.9 6.796-19.79 13.598-29.69 20.394-1.258.854-.101 2.953 1.179 2.085ZM91.753-77.575c30.001-14.605 59.996-29.2 89.986-43.811 47.434-23.091 94.836-46.268 142.241-69.403 10.993-5.37 21.994-10.708 32.983-16.093 2.22-1.087.337-4.409-1.86-3.337-29.945 14.692-59.824 29.504-89.745 44.25-47.304 23.33-94.599 46.691-141.874 70.065-10.97 5.423-21.925 10.843-32.896 16.266-1.362.685-.201 2.732 1.165 2.063ZM136.297-48.841c29.294-15.196 58.593-30.376 87.887-45.572 46.685-24.207 93.333-48.49 139.989-72.741 10.698-5.557 21.4-11.098 32.089-16.686 2.187-1.146.31-4.479-1.861-3.337-29.248 15.277-58.431 30.674-87.646 46.011a158751.055 158751.055 0 0 0-139.611 73.408l-31.996 16.85c-1.364.71-.203 2.758 1.149 2.067ZM181.598-18.177c28.645-16.091 57.301-32.176 85.952-48.277 45.481-25.537 90.918-51.139 136.376-76.729 10.481-5.901 20.971-11.769 31.438-17.692 2.122-1.197.27-4.502-1.853-3.305-28.599 16.173-57.143 32.459-85.719 48.685a154956.287 154956.287 0 0 0-136.017 77.359c-10.453 5.944-20.896 11.894-31.354 17.848-1.343.79-.165 2.875 1.177 2.11Z" fill="#D1F2DE"></path><path d="M245.27 25.075c53.408 35.324 106.759 70.722 160.336 105.781 5.287 3.46 10.549 6.987 15.923 10.323 2.189 1.354 4.219-2.099 2.03-3.453-41.051-25.37-80.932-52.82-121.258-79.33a63860.154 63860.154 0 0 1-55.264-36.349c-1.88-1.213-3.635 1.794-1.767 3.028ZM58.002-98.84c39.412 25.675 78.46 51.946 117.675 77.911C195.027-8.118 214.393 4.69 233.743 17.5c1.899 1.251 3.687-1.79 1.789-3.042-54.021-35.522-107.978-71.129-162.04-106.581-4.677-3.074-9.338-6.153-14.038-9.187-1.555-1.009-2.997 1.466-1.452 2.47ZM426.729 154.181c28.226-20.661 56.456-41.306 84.682-61.967 44.771-32.762 89.467-65.65 134.182-98.5 10.247-7.523 20.513-15.01 30.731-22.577 3.876-2.869.208-9.497-3.695-6.604-28.078 20.8-56.014 41.795-84.026 62.69-44.662 33.312-89.276 66.68-133.887 100.064l-30.838 23.082c-2.151 1.613.659 5.427 2.851 3.812Z" fill="#D1F2DE"></path><path d="M35.986-99.331c13.604 8.89 27.062 18.007 40.602 26.983 29.564 19.587 59.132 39.19 88.69 58.787 35.718 23.665 71.435 47.33 107.158 70.984a92894.639 92894.639 0 0 0 94.748 62.66c17.204 11.36 34.338 22.84 51.716 33.951.661.416 1.325.847 1.986 1.263 4.388 2.715 8.439-4.197 4.061-6.907-15.087-9.331-29.82-19.265-44.663-28.966-30.337-19.812-60.634-39.668-90.942-59.53a236644.524 236644.524 0 0 1-107.563-70.547l-93.235-61.19c-16.034-10.523-31.868-21.55-48.247-31.533-.476-.293-.93-.601-1.4-.904-3.116-2.008-6.004 2.927-2.91 4.949ZM423.783 166.565c28.129-20.312 56.264-40.635 84.378-60.969 44.789-32.4 89.416-65.032 134.113-97.554 10.204-7.428 20.453-14.816 30.628-22.288 2.951-2.169.172-7.207-2.806-5.014-.621.46-.457.34-1.82 1.349l-4.881 3.614C657.321-9.804 651.242-5.3 645.178-.801l-59.3 43.915c-44.328 32.834-88.645 65.674-132.853 98.673-10.223 7.62-20.441 15.256-30.663 22.876-1.077.798.318 2.699 1.421 1.902Z" fill="#D1F2DE"></path><path d="M33.272-90.12C46.92-81.19 60.388-72 73.96-62.964c29.802 19.848 59.598 39.707 89.4 59.555 35.829 23.866 71.648 47.725 107.488 71.571 31.532 20.974 63.053 41.941 94.608 62.875 17.351 11.5 34.624 23.157 52.145 34.392.655.426 1.316.842 1.977 1.257 4.388 2.716 8.439-4.197 4.061-6.906-15.128-9.355-29.876-19.379-44.751-29.139-30.581-20.064-61.116-40.181-91.657-60.289A158677.652 158677.652 0 0 1 179.337-.782a363015.238 363015.238 0 0 1-93.098-61.42C70.073-72.87 54.116-84.077 37.572-94.171c-.466-.287-.93-.6-1.39-.898-3.116-2.008-6.004 2.927-2.91 4.949Z" fill="#D1F2DE"></path><path d="M423.51 149.963c-.784 2.389-1.358 4.835-2.003 7.265-.605 2.293-1.472 5.214-.535 7.481.555 1.353 2.398 1.275 3.323.482 1.751-1.484 1.987-4.803 2.216-6.938.248-2.421.414-4.863.792-7.275.402-2.452-2.984-3.471-3.793-1.015Z" fill="#D1F2DE"></path></svg>