<svg width="60" height="60" viewBox="0 0 60 60" fill="none" xmlns="http://www.w3.org/2000/svg"> <path d="M2.99155 28.9928H8.99005C9.54222 28.9928 9.98976 29.4405 9.98976 29.9925V52.129C8.0399 52.6324 6.76861 54.5072 7.02238 56.5048C7.27614 58.5025 8.97576 59.9999 10.9895 59.9999C13.0032 59.9999 14.7028 58.5025 14.9566 56.5048C15.2103 54.5072 13.939 52.6324 11.9892 52.129V29.9925C11.9892 28.3361 10.6463 26.9933 8.98993 26.9933H2.99143C2.66304 26.9917 2.35644 26.829 2.17097 26.558C1.98563 26.287 1.94509 25.9422 2.0626 25.6356L7.50226 11.6391C7.65105 11.2511 8.02443 10.9954 8.43999 10.9973H12.7659L10.0666 20.4449C9.89404 21.0483 10.0147 21.6977 10.3926 22.1987C10.7704 22.6998 11.3616 22.9943 11.9891 22.9943H47.9801C48.6078 22.9946 49.1992 22.7002 49.5773 22.1991C49.9554 21.6981 50.0761 21.0485 49.9036 20.4449L47.2032 10.9973H51.5291C51.9447 10.9955 52.3181 11.2511 52.4669 11.6391L57.9065 25.6356C58.024 25.9422 57.9836 26.287 57.7982 26.558C57.6128 26.829 57.3061 26.9917 56.9777 26.9933H50.9792C49.3228 26.9933 47.98 28.3361 47.98 29.9925V52.129C46.0301 52.6324 44.7588 54.5072 45.0126 56.5048C45.2663 58.5025 46.9659 59.9999 48.9797 59.9999C50.9934 59.9999 52.693 58.5025 52.9468 56.5048C53.2005 54.5072 51.9292 52.6324 49.9794 52.129V29.9925C49.9794 29.4403 50.4269 28.9928 50.9791 28.9928H56.9776C57.9659 28.9909 58.8898 28.5022 59.4476 27.6865C60.0054 26.8707 60.1256 25.8324 59.7689 24.9108L54.3307 10.9142C53.8857 9.75565 52.7707 8.99283 51.5295 8.99775H46.6308L44.4753 1.45159C44.2285 0.593992 43.4451 0.00246032 42.5527 0H17.417C16.5253 0.00257748 15.7422 0.593055 15.4944 1.4496L13.338 8.99775H8.44023C7.19976 8.99365 6.08582 9.75635 5.64097 10.9142L0.202248 24.9108C-0.154381 25.8321 -0.0344112 26.8699 0.52291 27.6857C1.08023 28.5014 2.00367 28.9902 2.99155 28.9928ZM12.9891 55.986C12.9891 57.0904 12.0939 57.9856 10.9896 57.9856C9.88526 57.9856 8.99005 57.0904 8.99005 55.986C8.99005 54.8817 9.88526 53.9865 10.9896 53.9865C12.0939 53.9865 12.9891 54.8817 12.9891 55.986ZM50.9796 55.986C50.9796 57.0904 50.0843 57.9856 48.98 57.9856C47.8757 57.9856 46.9805 57.0904 46.9805 55.986C46.9805 54.8817 47.8757 53.9865 48.98 53.9865C50.0843 53.9865 50.9796 54.8817 50.9796 55.986ZM45.696 12.9967H39.8394L39.0707 7.99792H44.2693L45.696 12.9967ZM37.8159 12.9967H30.9846V7.99804H37.0471L37.8159 12.9967ZM28.9851 12.9967H22.2868L23.0007 7.99792H28.9852L28.9851 12.9967ZM20.2623 12.9967H14.2748L15.7035 7.99792H20.9771L20.2623 12.9967ZM13.7039 14.9963H19.9774L19.1196 20.9948H11.9893L13.7039 14.9963ZM22.0019 14.9963H28.9851V20.9948H21.1401L22.0019 14.9963ZM30.9846 20.9948V14.9963H38.1239L39.0457 20.9948H30.9846ZM41.0681 20.9948L40.1463 14.9963H46.2678L47.9804 20.9948H41.0681ZM43.6955 5.9985H38.7628L38.1479 1.99954H42.5518L43.6955 5.9985ZM36.7401 5.9985H30.9846V1.99954H36.1253L36.7401 5.9985ZM28.9851 1.99954V5.9985H23.2865L23.8574 1.99954H28.9851ZM21.8339 1.99954L21.262 5.9985H16.2742L17.417 1.99954H21.8339Z" fill="#1E2227"></path> <path d="M20.9872 59.985C21.5394 59.985 21.987 59.5374 21.987 58.9853V56.9857H23.9865C24.5387 56.9857 24.9862 56.5382 24.9862 55.986C24.9862 55.4339 24.5385 54.9863 23.9865 54.9863H21.987V52.9868C21.987 52.4346 21.5393 51.9871 20.9872 51.9871C20.4351 51.9871 19.9875 52.4346 19.9875 52.9868V54.9863H17.988C17.4358 54.9863 16.9883 55.434 16.9883 55.986C16.9883 56.5381 17.4359 56.9857 17.988 56.9857H19.9875V58.9853C19.9875 59.5374 20.4352 59.985 20.9872 59.985Z" fill="#1E2227"></path> <path d="M35.9841 54.9863C35.4319 54.9863 34.9844 55.434 34.9844 55.986C34.9844 56.5381 35.432 56.9857 35.9841 56.9857H41.9826C42.5348 56.9857 42.9823 56.5382 42.9823 55.986C42.9823 55.4339 42.5346 54.9863 41.9826 54.9863H35.9841Z" fill="#1E2227"></path> <path d="M29.9848 24.9937C22.2547 24.9937 15.9883 31.2601 15.9883 38.9902C15.9883 46.7203 22.2547 52.9867 29.9848 52.9867C37.7149 52.9867 43.9814 46.7203 43.9814 38.9902C43.9732 31.2636 37.7115 25.002 29.9848 24.9937ZM29.9848 50.9872C23.3591 50.9872 17.9878 45.616 17.9878 38.9902C17.9878 32.3644 23.3591 26.9932 29.9848 26.9932C36.6106 26.9932 41.9818 32.3644 41.9818 38.9902C41.9747 45.613 36.6077 50.9801 29.9848 50.9872Z" fill="#1E2227"></path> <path d="M34.5107 37.9905H32.9851L33.663 31.6471C33.7342 31.0118 33.3928 30.4019 32.8142 30.1305C32.2486 29.8614 31.574 29.9887 31.1456 30.4454L24.4053 37.4586C23.9862 37.8927 23.868 38.5355 24.1053 39.0901C24.3351 39.6341 24.8674 39.9883 25.458 39.9899H26.9866L26.3087 46.3353C26.2387 46.9697 26.5798 47.5785 27.1575 47.8499C27.3517 47.9416 27.5637 47.9894 27.7784 47.9899C28.1753 47.9885 28.5541 47.8241 28.8261 47.535L35.5664 40.5218C35.9855 40.0877 36.1037 39.4449 35.8664 38.8903C35.6363 38.3452 35.1024 37.9908 34.5107 37.9905ZM28.4582 45.0317L29.0911 39.0962C29.1212 38.8144 29.0301 38.5328 28.8406 38.3219C28.6511 38.1111 28.3809 37.9906 28.0974 37.9905H26.6688L31.5136 32.9487L30.8857 38.8842C30.8558 39.1652 30.9462 39.4458 31.1346 39.6566C31.323 39.8674 31.5919 39.9884 31.8744 39.9899H33.3031L28.4582 45.0317Z" fill="#1E2227"></path> </svg>